<svg xmlns="http://www.w3.org/2000/svg" viewBox="0 0 120 28" fill="none" stroke="#70452b" stroke-width="1.8" stroke-linecap="round" stroke-linejoin="round">
  <path d="M4 22c17-2 31-8 46-18"/>
  <path d="M20 18c-2-6-6-9-11-10 0 5 3 9 11 10Z"/>
  <path d="M31 13c-1-6-4-10-9-12 0 6 3 10 9 12Z"/>
  <path d="M31 13c6 1 11-1 14-5-6-2-11 0-14 5Z"/>
  <path d="M43 7c5 1 10 0 14-4-6-2-11 0-14 4Z"/>
  <path d="M50 4c10 7 20 12 33 15"/>
  <path d="M62 11c1-5 4-8 8-10 1 5-2 9-8 10Z"/>
  <path d="M72 16c2-5 6-8 11-8 0 5-4 8-11 8Z"/>
  <path d="M83 19c6-1 11 1 15 5-7 1-12-1-15-5Z"/>
  <path d="M98 24h17"/>
</svg>