<svg xmlns="http://www.w3.org/2000/svg" viewBox="0 0 24 24"><path fill="#fff" d="M12.05 2C6.5 2 2.02 6.08 2.02 11.13c0 2.75 1.34 5.2 3.44 6.88V22l3.83-2.13c.89.25 1.82.38 2.76.38 5.54 0 10.03-4.08 10.03-9.12S17.59 2 12.05 2Zm0 16.46c-.86 0-1.71-.12-2.53-.36l-.43-.13-2.27 1.26.02-2.28-.36-.27c-1.77-1.34-2.78-3.36-2.78-5.55 0-4.06 3.75-7.36 8.35-7.36s8.35 3.3 8.35 7.36-3.74 7.33-8.35 7.33Zm4.68-5.2c-.25-.13-1.5-.74-1.73-.82-.23-.08-.4-.13-.56.13-.17.25-.65.82-.8.99-.15.17-.29.19-.54.06-1.49-.74-2.46-1.33-3.45-3.02-.26-.45.26-.42.74-1.4.08-.17.04-.31-.02-.44-.06-.13-.56-1.35-.77-1.85-.2-.49-.41-.42-.56-.43h-.48c-.17 0-.44.06-.67.31-.23.25-.88.86-.88 2.1s.9 2.44 1.03 2.61c.13.17 1.77 2.7 4.29 3.79 1.59.69 2.22.75 3.02.63.49-.07 1.5-.61 1.71-1.2.21-.59.21-1.09.15-1.2-.06-.12-.23-.18-.48-.31Z"/></svg>